<svg width="16" height="16" viewBox="0 0 16 16" fill="none" xmlns="http://www.w3.org/2000/svg">
<path d="M9.66248 8.12001L10.8675 7.94751C10.8675 7.94751 11.0587 10.44 11.2037 10.7338C11.3487 11.0275 12.9275 12.835 12.9275 12.835L12.595 13.555L10.4525 11.5263C10.2225 11.3088 10.0737 11.02 10.0287 10.7063L9.66248 8.12001Z" fill="#7C7C7C"/>
<path d="M6.28002 8.12001L5.07501 7.94751C5.07501 7.94751 4.88376 10.44 4.73876 10.7338C4.59376 11.0288 3.01501 12.835 3.01501 12.835L3.34751 13.555L5.48876 11.5263C5.71876 11.3088 5.86751 11.02 5.91251 10.7063L6.28002 8.12001Z" fill="#7C7C7C"/>
<path d="M11.0725 8.69L10.9687 7.51C10.955 7.34876 10.6662 6.03625 8.02871 6.03625C5.39121 6.03625 5.04871 7.32125 5.03246 7.50875L4.92871 8.68876L6.07121 8.79V12.2713H9.96871V8.78751L11.0725 8.69Z" fill="#404040"/>
<path d="M10.9175 13.96C10.085 14.1037 9.36379 14.3225 8.55254 14.5637C8.18754 14.6725 7.80379 14.785 7.38254 14.8975C6.56254 15.1162 5.60004 15.335 4.35754 15.5175C3.62129 15.6262 2.84879 15.5175 2.45754 15.2762C2.16629 15.0962 1.91004 14.74 2.01129 14.4375C2.12254 14.1025 2.45504 13.73 2.92379 13.5063C3.11754 13.4138 3.32754 13.3262 3.54379 13.2462C4.08254 13.045 4.65504 12.8812 5.08379 12.7687C5.49254 12.6625 5.77254 12.6038 5.77254 12.6038C6.28504 12.4913 6.75754 12.4887 7.13254 12.65C7.78504 12.9287 11.1463 13.9212 10.9175 13.96V13.96Z" fill="#7C7C7C"/>
<path d="M13.5313 15.2762C13.14 15.5175 12.37 15.6162 11.6313 15.5175C10.2225 15.33 8.48754 14.7575 7.24379 14.1512C6.53754 13.8075 5.92504 13.3962 5.57129 13.1925C5.32254 13.0487 5.12504 12.9687 4.81254 13.0025C4.69004 13.0162 4.65004 13.025 4.56379 13.0212C4.38879 13.0137 4.54379 12.735 4.54379 12.735C4.62879 12.5375 4.91254 12.3112 5.19129 12.4112C5.47004 12.5112 5.80504 12.7125 5.80504 12.7125C6.44129 12.91 6.47004 12.515 6.84254 12.6462C7.02879 12.7112 7.07129 12.9337 7.07629 13.0587C7.08254 13.1937 7.28754 13.3187 7.42254 13.3375L8.29629 13.4412L8.41629 13.455L8.72879 13.4925L9.67879 12.8175L9.81004 12.7237L10.1538 12.48C10.1538 12.48 10.2475 12.5112 10.405 12.5662C10.4538 12.5825 10.5088 12.6025 10.57 12.6237C10.8275 12.7137 11.18 12.8387 11.5575 12.9787C11.6 12.995 11.6438 13.0112 11.6875 13.0275C12.1763 13.2112 12.6938 13.4162 13.0913 13.6C13.5625 13.8175 13.8663 14.1025 13.9788 14.4375C14.0788 14.74 13.8225 15.0962 13.5313 15.2762V15.2762Z" fill="#7C7C7C"/>
<path d="M9.98371 12.3287L9.96496 11.9C9.96496 11.9 9.45121 12.135 8.05246 12.135C6.65371 12.135 6.06871 11.9 6.06871 11.9V12.3287L5.14746 12.8787L8.01246 14.185L11.0362 12.8675L9.98371 12.3287Z" fill="#7C7C7C"/>
<path d="M4.0437 14.1237C4.0537 13.9962 4.13245 13.8837 4.2262 13.805C4.31995 13.7225 4.42995 13.6662 4.5462 13.6237C4.60245 13.6037 4.6712 13.5875 4.72745 13.5812L4.9012 13.5575C5.01745 13.5437 5.1337 13.5287 5.24995 13.5175C5.48245 13.4925 5.7162 13.4787 5.94995 13.4712C6.1837 13.4637 6.41745 13.4637 6.6537 13.48C6.6887 13.4825 6.71495 13.5125 6.71245 13.5475C6.70995 13.5812 6.68245 13.6075 6.6487 13.6062H6.6462C6.41745 13.6025 6.18495 13.61 5.95495 13.6187C5.7237 13.6287 5.4937 13.6462 5.2637 13.6637C5.1487 13.6737 5.0337 13.685 4.9187 13.6975L4.7462 13.7187C4.6862 13.725 4.6412 13.7325 4.5862 13.7475C4.48245 13.7775 4.37995 13.825 4.28995 13.885C4.19995 13.9462 4.1237 14.0262 4.08995 14.13V14.1312C4.0862 14.1437 4.07245 14.15 4.05995 14.1462C4.04995 14.1437 4.0437 14.1337 4.0437 14.1237V14.1237Z" fill="#404040"/>
<path d="M13.5313 15.2762C13.14 15.5175 12.37 15.6162 11.6313 15.5175C10.5975 15.38 9.38879 15.035 8.32629 14.6212C7.94129 14.4712 7.57504 14.3125 7.24379 14.1512C6.53754 13.8075 5.92504 13.3962 5.57129 13.1925C5.32254 13.0487 5.12504 12.9687 4.81254 13.0025C4.69004 13.0162 4.65004 13.025 4.56379 13.0212C4.38879 13.0137 4.54379 12.735 4.54379 12.735C4.62879 12.5375 4.91254 12.3112 5.19129 12.4112C5.47004 12.5112 5.80504 12.7125 5.80504 12.7125C6.44129 12.91 6.47004 12.515 6.84254 12.6462C7.02879 12.7112 7.07129 12.9337 7.07629 13.0587C7.08254 13.1937 7.28754 13.3187 7.42254 13.3375C7.42254 13.3375 7.77879 13.4012 8.16629 13.4525H8.16754L8.23129 13.46C8.25879 13.4637 8.28629 13.4675 8.31379 13.47C8.40629 13.4812 8.49754 13.49 8.58379 13.4975L8.60754 13.5H8.61379C8.61504 13.5012 8.61629 13.5012 8.61754 13.5H8.61879C8.71254 13.5075 8.80004 13.5112 8.87504 13.5112C8.99379 13.5112 9.10879 13.5075 9.22129 13.5C9.60879 13.4762 9.96629 13.4175 10.3125 13.3675C10.41 13.3525 10.5063 13.3387 10.6025 13.3262H10.6038C10.9475 13.2825 11.285 13.2587 11.6375 13.2987C12.3025 13.375 13.1188 13.6012 13.9113 14.2862C13.9375 14.335 13.9613 14.3862 13.9788 14.4375C14.0788 14.74 13.8225 15.0962 13.5313 15.2762V15.2762Z" fill="#7C7C7C"/>
<path d="M11.9038 13.5575C11.6825 13.4775 11.0413 13.3912 10.6713 13.3475C10.3013 13.3037 10.9688 13.1662 11.4425 13.2212C11.7375 13.2562 11.4525 12.74 11.4525 12.74C11.4525 12.74 10.7213 13.1387 10.4725 13.2825C10.4613 13.2887 10.4363 13.3025 10.4038 13.3187C10.3988 13.3212 10.3938 13.3237 10.3888 13.3262C10.365 13.3387 10.3388 13.3525 10.3125 13.3675C10.2413 13.4037 10.1663 13.4425 10.1288 13.4637C10.2125 13.4662 10.295 13.47 10.3788 13.4737C11.2038 13.515 12.005 13.625 12.38 13.9437C12.3913 13.9525 12.41 13.9487 12.4063 13.9362C12.3688 13.8212 12.2163 13.6712 11.9038 13.5575Z" fill="#404040"/>
<path d="M11.4787 13.1112C11.3937 13.115 11.3537 13.1062 11.23 13.0912C10.9187 13.0587 10.7212 13.1387 10.4725 13.2825C10.4612 13.2887 10.4362 13.3025 10.4037 13.3187C10.3987 13.3212 10.3937 13.3237 10.3887 13.3262C10.365 13.3387 10.3387 13.3525 10.3125 13.3675C10.2412 13.4037 10.1662 13.4425 10.1287 13.4637C10.1212 13.4675 10.1137 13.4712 10.11 13.4737C10.11 13.4737 9.64997 13.4725 9.45747 13.49C9.41872 13.4937 9.38247 13.4962 9.34997 13.4987C9.18372 13.5112 9.08122 13.5112 8.87497 13.5112C8.79997 13.5112 8.71247 13.5075 8.61872 13.5C8.61747 13.5 8.61747 13.5 8.61747 13.5H8.60747L8.58372 13.4975C8.49747 13.49 8.40622 13.4812 8.31372 13.47L8.32122 13.4687H8.32247L8.57997 13.4325L8.62122 13.4262C8.70747 13.415 8.82122 13.36 8.89497 13.2862C8.89622 13.285 8.89747 13.2837 8.89747 13.2825C8.90747 13.2737 8.91497 13.265 8.92247 13.255C8.94747 13.2225 8.96372 13.1862 8.96622 13.1475C8.96622 13.1412 8.96747 13.135 8.96872 13.1287C8.97747 13.0012 9.02372 12.7962 9.20122 12.735C9.57372 12.605 9.60122 12.9987 10.2375 12.8025C10.2375 12.8025 10.5725 12.6012 10.8512 12.5012C11.13 12.4012 11.415 12.6262 11.4987 12.8237C11.4987 12.8237 11.52 12.8612 11.5375 12.9075C11.5675 12.99 11.5912 13.1062 11.4787 13.1112V13.1112Z" fill="#7C7C7C"/>
<path d="M14.55 12.52C14.55 12.5 14.54 12.48 14.5225 12.4688C14.505 12.4575 14.485 12.4538 14.465 12.4613C14.4575 12.4638 14.2962 12.5213 14.2225 12.6775C14.2187 12.685 14.2162 12.6938 14.2162 12.7025L14.205 13.0063C14.19 13.0275 14.1675 13.0575 14.1425 13.0925L14.1 12.7125L14.11 12.2C14.11 12.1825 14.1037 12.165 14.0912 12.1525C14.0787 12.14 14.06 12.1338 14.0437 12.135C14.04 12.135 13.9937 12.1388 13.9375 12.1575C13.9325 12.1575 13.9287 12.1575 13.9237 12.1575C13.92 12.1575 13.9162 12.1588 13.9112 12.1588C13.9025 12.1588 13.895 12.16 13.8862 12.1613C13.8775 12.1625 13.8675 12.1638 13.8587 12.1663C13.8512 12.1675 13.845 12.17 13.8375 12.1713C13.8287 12.1738 13.8212 12.1763 13.8125 12.18C13.8062 12.1825 13.8 12.185 13.7937 12.1888C13.7862 12.1925 13.78 12.1963 13.7725 12.2013C13.7662 12.205 13.7612 12.2088 13.755 12.2125C13.7487 12.2175 13.7425 12.2225 13.7375 12.2275C13.7325 12.2325 13.7262 12.2375 13.7212 12.2425C13.7162 12.2475 13.7112 12.2525 13.7062 12.2575C13.7012 12.2638 13.695 12.27 13.69 12.2763C13.6862 12.2813 13.6825 12.2863 13.6787 12.29C13.6725 12.2975 13.6662 12.3063 13.6612 12.3138C13.6587 12.3163 13.6575 12.32 13.655 12.3225C13.5787 12.4338 13.5212 12.5675 13.4062 12.6113C13.3862 12.6188 13.365 12.625 13.3425 12.63C13.1337 12.6738 12.8612 12.5925 12.7037 12.7738L12.705 12.7763C12.7 12.7813 12.6937 12.7863 12.6887 12.7925C12.6462 12.8438 12.4775 12.7475 12.4775 12.7475L12.1612 12.9688L12.125 12.935L12.015 12.8313L11.87 12.8663L12.4837 13.4525L13.0162 13.8113C13.0287 13.8213 13.045 13.8263 13.0612 13.8238L13.1937 13.81C13.27 13.8513 13.355 13.8725 13.44 13.8725C13.48 13.8725 13.52 13.8675 13.5587 13.8588C13.6625 13.835 13.755 13.7788 13.8237 13.6975L13.84 13.6788L13.8662 13.6888C13.8725 13.6913 13.8787 13.6925 13.885 13.6938C14.0087 13.7025 14.1537 13.6363 14.24 13.5313L14.5412 13.1525C14.55 13.1413 14.555 13.1263 14.555 13.1125L14.55 12.52Z" fill="#7C7C7C"/>
<path d="M14.11 12.1575V12.18L14.1075 12.2625C14.04 12.26 13.9612 12.2725 13.9087 12.3075C13.8525 12.3413 13.83 12.3963 13.83 12.4763L13.815 12.9638L13.8062 13.2088C13.8112 13.2525 13.785 13.305 13.7575 13.3313L13.6812 13.4263L13.3762 13.8088L13.655 13.4075L13.7262 13.3063C13.7525 13.2725 13.7625 13.2475 13.7587 13.2075L13.7512 12.9625L13.735 12.4725C13.7325 12.4338 13.735 12.3788 13.7525 12.3325C13.7687 12.2875 13.8375 12.1463 14.0762 12.1275C14.0937 12.1288 14.1075 12.1388 14.11 12.1575V12.1575Z" fill="#404040"/>
<path d="M14.5525 12.47V12.4787L14.5513 12.5612C14.5063 12.56 14.4525 12.5712 14.41 12.5937C14.3675 12.6162 14.335 12.6512 14.3175 12.6962C14.31 12.7187 14.305 12.745 14.3025 12.7712L14.2938 12.8625C14.285 12.9237 14.2775 12.9812 14.2563 13.0475L14.255 13.0525L14.2513 13.0575L14.1775 13.145L13.8938 13.5887L14.13 13.1137L14.1313 13.1112L14.1925 13.0225C14.2025 12.9725 14.2063 12.9125 14.2088 12.855V12.7675C14.21 12.7337 14.2138 12.6987 14.2225 12.665C14.2425 12.595 14.2925 12.5325 14.3525 12.495C14.4013 12.4675 14.45 12.4475 14.5038 12.4387C14.5075 12.4375 14.5125 12.4362 14.5175 12.4362H14.5188C14.5363 12.4375 14.55 12.4512 14.5525 12.47V12.47Z" fill="#404040"/>
<path d="M12.6512 13.1175C12.6512 13.1175 13.1175 12.6587 13.7437 12.7075C13.7437 12.7075 13.4787 12.695 13.525 13.155C13.525 13.155 13.34 12.9687 13.0812 13.4537C13.08 13.455 12.9312 13.0587 12.6512 13.1175Z" fill="#7C7C7C"/>
<path d="M13.7638 12.7938C13.7263 12.7863 13.6763 12.7913 13.645 12.81C13.6125 12.8288 13.5925 12.865 13.585 12.9125C13.5775 12.9613 13.575 13.0213 13.57 13.075L13.5638 13.1575C13.56 13.185 13.5625 13.2113 13.5538 13.2475C13.5438 13.2825 13.52 13.3088 13.5038 13.3275L13.4513 13.3925L13.345 13.5213L13.1338 13.78L13.32 13.5025L13.4138 13.3638L13.46 13.2938C13.4763 13.2688 13.49 13.2513 13.4925 13.2313C13.4963 13.2138 13.4925 13.1838 13.4925 13.155L13.4913 13.0713C13.4913 13.0138 13.4875 12.9613 13.49 12.9C13.4925 12.8375 13.52 12.7625 13.5813 12.7175C13.6438 12.6738 13.71 12.6625 13.7825 12.6675L13.7638 12.7938Z" fill="#404040"/>
<path d="M13.495 13.2175C13.4662 13.2038 13.4212 13.195 13.3875 13.2025C13.3512 13.2075 13.3187 13.23 13.2925 13.2613L13.1025 13.4963L13.0575 13.5525L13.035 13.485C12.99 13.3475 12.8937 13.2113 12.755 13.15C12.615 13.0863 12.4475 13.1113 12.3037 13.1725C12.4425 13.1013 12.61 13.0588 12.7687 13.115C12.8462 13.1425 12.9162 13.1913 12.9725 13.2513C13.0287 13.3125 13.0737 13.3813 13.1062 13.4613L13.0387 13.45L13.21 13.2C13.2437 13.1525 13.2962 13.1075 13.36 13.0925C13.4237 13.0763 13.4837 13.08 13.5475 13.1038L13.495 13.2175Z" fill="#404040"/>
<path d="M1.44995 12.4737C1.44995 12.4537 1.45995 12.4337 1.47745 12.4225C1.4937 12.4112 1.51495 12.4075 1.53495 12.415C1.54245 12.4175 1.7037 12.475 1.77745 12.6312C1.7812 12.6387 1.7837 12.6475 1.7837 12.6562L1.79495 12.96C1.80995 12.9812 1.83245 13.0112 1.85745 13.0462L1.89995 12.6662L1.88995 12.1538C1.88995 12.1363 1.8962 12.1187 1.90995 12.1062C1.92245 12.0937 1.9412 12.0875 1.95745 12.0887C1.9612 12.0887 2.00745 12.0925 2.0637 12.1112H2.07745C2.0812 12.1112 2.08495 12.1125 2.08995 12.1125C2.0987 12.1125 2.1062 12.1137 2.11495 12.115C2.12495 12.1162 2.1337 12.1175 2.14245 12.12C2.14995 12.1212 2.1562 12.1237 2.1637 12.125C2.17245 12.1275 2.17995 12.13 2.1887 12.1337C2.19495 12.1362 2.2012 12.1387 2.20745 12.1425C2.21495 12.1462 2.2212 12.15 2.2287 12.155C2.23495 12.1587 2.23995 12.1625 2.2462 12.1662L2.26495 12.1812C2.2712 12.1862 2.2762 12.1912 2.2812 12.1962L2.2962 12.2112C2.30245 12.2175 2.30745 12.2237 2.31245 12.23C2.3162 12.235 2.31995 12.24 2.3237 12.2437C2.32995 12.2512 2.3362 12.26 2.3412 12.2675C2.3437 12.27 2.34495 12.2737 2.34745 12.2762C2.4237 12.3875 2.4812 12.5212 2.5962 12.565C2.6162 12.5725 2.63745 12.5787 2.65995 12.5837C2.8687 12.6275 3.1412 12.5462 3.2987 12.7275L3.29745 12.73C3.30245 12.735 3.3087 12.74 3.3137 12.7462C3.3562 12.7975 3.52495 12.7012 3.52495 12.7012L3.83995 12.9225L3.87495 12.8887L3.98495 12.785L4.12995 12.82L3.5162 13.4062L2.9837 13.765C2.9712 13.775 2.95495 13.78 2.9387 13.7775L2.8062 13.7637C2.72995 13.805 2.64495 13.8262 2.55995 13.8262C2.51995 13.8262 2.47995 13.8212 2.4412 13.8125C2.33745 13.7887 2.24495 13.7325 2.1762 13.6512L2.15995 13.6325L2.1337 13.6425C2.12745 13.645 2.1212 13.6462 2.11495 13.6475C1.99245 13.6562 1.8462 13.59 1.75995 13.485L1.4587 13.1062C1.44995 13.095 1.44495 13.08 1.44495 13.0662L1.44995 12.4737Z" fill="#7C7C7C"/>
<path d="M1.44873 12.4238V12.4325L1.44998 12.515C1.49498 12.5138 1.54873 12.525 1.59123 12.5475C1.63373 12.57 1.66623 12.605 1.68373 12.65C1.69123 12.6725 1.69623 12.6988 1.69873 12.725L1.70748 12.8163C1.71623 12.8775 1.72373 12.935 1.74498 13.0013L1.74623 13.0063L1.74998 13.0113L1.82373 13.0988L2.10748 13.5425L1.87123 13.0675L1.86998 13.065L1.80873 12.9763C1.79873 12.9263 1.79498 12.8663 1.79248 12.8088V12.7213C1.79123 12.6875 1.78748 12.6525 1.77873 12.6188C1.75873 12.5488 1.70873 12.4863 1.64748 12.4488C1.59873 12.4213 1.54998 12.4013 1.49623 12.3925C1.49248 12.3913 1.48748 12.39 1.48248 12.39H1.48123C1.46373 12.3913 1.44998 12.405 1.44873 12.4238V12.4238Z" fill="#404040"/>
<path d="M3.34873 13.0713C3.34873 13.0713 2.88248 12.6125 2.25623 12.6613C2.25623 12.6613 2.52123 12.6488 2.47498 13.1088C2.47498 13.1088 2.65998 12.9225 2.91873 13.4075C2.91873 13.4088 3.06873 13.0125 3.34873 13.0713Z" fill="#7C7C7C"/>
<path d="M2.23628 12.7462C2.27378 12.7387 2.32378 12.7437 2.35503 12.7625C2.38753 12.7812 2.40753 12.8175 2.41503 12.865C2.42253 12.9137 2.42503 12.9737 2.43003 13.0275L2.43628 13.11C2.44003 13.1375 2.43753 13.1637 2.44628 13.2C2.45628 13.235 2.48003 13.2612 2.49628 13.28L2.54878 13.345L2.65503 13.4737L2.86628 13.7325L2.68003 13.455L2.58628 13.3162L2.54003 13.2462C2.52378 13.2212 2.51003 13.2037 2.50753 13.1837C2.50378 13.1662 2.50753 13.1362 2.50753 13.1075L2.50878 13.0237C2.50878 12.9662 2.51253 12.9137 2.51003 12.8525C2.50753 12.79 2.48003 12.715 2.41878 12.67C2.35628 12.6262 2.29003 12.615 2.21753 12.62L2.23628 12.7462Z" fill="#404040"/>
<path d="M2.50382 13.17C2.53257 13.1562 2.57757 13.1475 2.61132 13.155C2.64757 13.16 2.68007 13.1825 2.70632 13.2137L2.89632 13.4487L2.94132 13.505L2.96382 13.4375C3.00882 13.3 3.10507 13.1637 3.24382 13.1025C3.38382 13.0387 3.55132 13.0637 3.69507 13.125C3.55632 13.0537 3.38882 13.0112 3.23007 13.0675C3.15257 13.095 3.08257 13.1437 3.02632 13.2037C2.97007 13.265 2.92507 13.3337 2.89132 13.4137L2.95882 13.4025L2.78757 13.1525C2.75382 13.105 2.70132 13.06 2.63757 13.045C2.57382 13.0287 2.51382 13.0325 2.45007 13.0562L2.50382 13.17Z" fill="#404040"/>
<path d="M1.89001 12.1162V12.1387L1.89251 12.2212C1.96001 12.2187 2.03876 12.2312 2.09126 12.2662C2.14751 12.3 2.17001 12.355 2.17001 12.435L2.18501 12.9225L2.19376 13.1675C2.18876 13.2112 2.21501 13.2637 2.24251 13.29L2.31876 13.385L2.62376 13.7675L2.34501 13.3662L2.27376 13.265C2.24751 13.2312 2.23751 13.2062 2.24126 13.1662L2.24876 12.9212L2.26501 12.4312C2.26751 12.3925 2.26501 12.3375 2.24751 12.2912C2.23126 12.2462 2.16251 12.105 1.92376 12.0862C1.90626 12.0875 1.89251 12.0987 1.89001 12.1162V12.1162Z" fill="#404040"/>
<path d="M10.1075 5.0075C10.0325 4.87 10.1288 4.73125 10.2925 4.5575C10.5525 4.28375 10.8363 3.6475 10.5725 3.0025C10.5738 2.99875 10.5213 2.89 10.5225 2.88625L10.4138 2.88125C10.3788 2.87625 9.19003 2.87375 8.00003 2.87375C6.81003 2.87375 5.62128 2.87625 5.58628 2.88125C5.58628 2.88125 5.42628 2.99875 5.42753 3.0025C5.16503 3.64875 5.44753 4.28375 5.70753 4.5575C5.87128 4.73 5.96753 4.87 5.89253 5.0075C5.82003 5.14125 5.60128 5.16 5.60128 5.16C5.60128 5.16 5.65128 5.29625 5.77253 5.37C5.88503 5.4375 6.02128 5.45375 6.11753 5.45625C6.11753 5.45625 6.48878 5.97 7.46003 5.97H8.00003H8.54003C9.51003 5.97 9.88253 5.45625 9.88253 5.45625C9.97753 5.45375 10.115 5.4375 10.2263 5.37C10.3475 5.29625 10.3975 5.16 10.3975 5.16C10.3975 5.16 10.18 5.14125 10.1075 5.0075V5.0075Z" fill="#333333"/>
<path d="M7.99878 5.97001V5.40001L9.72378 5.26376L9.88003 5.45626C9.88003 5.45626 9.50878 5.97001 8.53753 5.97001H7.99878Z" fill="#333333"/>
<path d="M10.5737 3.0025C10.8299 3.6275 10.5599 4.27125 10.3074 4.5425C10.2724 4.58 10.1262 4.72375 10.0924 4.84C10.0924 4.84 9.5162 4.03625 9.3437 3.565C9.3087 3.47 9.27745 3.37125 9.2737 3.27C9.26995 3.19375 9.28245 3.10375 9.3262 3.03875C9.37995 2.96 10.5437 2.93625 10.5437 2.93625C10.5424 2.9375 10.5737 3.0025 10.5737 3.0025V3.0025Z" fill="#333333"/>
<path d="M5.42754 3.0025C5.17129 3.6275 5.44129 4.27125 5.69379 4.5425C5.72879 4.58 5.87504 4.72375 5.90879 4.84C5.90879 4.84 6.48504 4.03625 6.65754 3.565C6.69254 3.47 6.72379 3.37125 6.72754 3.27C6.73129 3.19375 6.71879 3.10375 6.67504 3.03875C6.62129 2.96 6.55879 2.98 6.46754 2.98C6.29379 2.98 5.53254 2.935 5.47379 2.935C5.47504 2.9375 5.42754 3.0025 5.42754 3.0025V3.0025Z" fill="#333333"/>
<path d="M8.0025 5.97001V5.40001L6.2775 5.26376L6.12 5.45626C6.12 5.45626 6.49125 5.97001 7.4625 5.97001H8.0025Z" fill="url(#paint0_radial_4_209)"/>
<path d="M7.99997 5.58749H7.40247V6.21999C7.40247 6.50624 7.64497 6.73749 7.94497 6.73749H8.05372C8.35372 6.73749 8.59622 6.50624 8.59622 6.21999V5.58749H7.99997Z" fill="#333333"/>
<path d="M7.99998 0.876251C6.95374 0.876251 5.98499 1.995 5.98499 3.605C5.98499 5.20625 6.98249 5.9975 7.99998 5.9975C9.01748 5.9975 10.015 5.20625 10.015 3.605C10.015 1.99375 9.04623 0.876251 7.99998 0.876251V0.876251Z" fill="#7C7C7C"/>
<path d="M10.43 1.70251C10.2825 1.48001 9.95254 1.18001 9.65629 1.16126C9.60879 0.876257 9.30379 0.635007 9.00879 0.541257C8.21004 0.287507 7.69004 0.571257 7.41004 0.723757C7.35129 0.755007 6.97754 0.963757 6.71504 0.813757C6.55129 0.720007 6.55379 0.467507 6.55379 0.467507C6.55379 0.467507 6.03879 0.663757 6.21504 1.21001C6.03879 1.21751 5.80629 1.29126 5.68379 1.54001C5.53754 1.83501 5.59004 2.08251 5.63129 2.20126C5.47879 2.33001 5.28754 2.60501 5.41879 2.96251C5.51754 3.23126 5.91254 3.35501 5.91254 3.35501C5.88504 3.83876 5.97504 4.13626 6.02254 4.25626C6.03129 4.27751 6.06129 4.27501 6.06629 4.25376C6.12629 4.01376 6.33004 3.17876 6.31004 3.03376C6.31004 3.03376 6.99504 2.89751 7.64879 2.41751C7.78129 2.32001 7.92629 2.23626 8.07879 2.17501C8.89879 1.84876 9.07129 2.40501 9.07129 2.40501C9.07129 2.40501 9.64004 2.29626 9.81129 3.08501C9.87504 3.38126 9.92004 3.85501 9.95629 4.18626C9.95879 4.21001 9.99129 4.21501 10 4.19251C10.0575 4.06126 10.1725 3.80001 10.2 3.53376C10.21 3.44001 10.4625 3.31626 10.57 2.91376C10.715 2.37876 10.5375 1.86376 10.43 1.70251V1.70251Z" fill="#333333"/>
<defs>
<radialGradient id="paint0_radial_4_209" cx="0" cy="0" r="1" gradientUnits="userSpaceOnUse" gradientTransform="translate(7.12085 5.14649) rotate(180) scale(1.41399 0.69455)">
<stop offset="0.7275" stop-color="#6D4C41" stop-opacity="0"/>
<stop offset="1" stop-color="#6D4C41"/>
</radialGradient>
</defs>
</svg>
